<?xml version="1.0" encoding="iso-8859-1"?>
<!-- Generator: Adobe Illustrator 19.0.0, SVG Export Plug-In . SVG Version: 6.00 Build 0)  -->
<svg version="1.1" id="Layer_1" xmlns="http://www.w3.org/2000/svg" xmlns:xlink="http://www.w3.org/1999/xlink" x="0px" y="0px"
	 viewBox="0 0 512 512" style="enable-background:new 0 0 512 512;" xml:space="preserve">
<g>
	<g>
		<circle cx="255.972" cy="117.293" r="36.595"/>
	</g>
</g>
<g>
	<g>
		<path d="M420.722,37.178h-9.352V5.863c0-3.238-2.625-5.863-5.863-5.863h-16.018c-3.238,0-5.863,2.625-5.863,5.863v31.315h-20.962
			c-1.633-6.42-7.092-11.46-14.065-12.198c-8.174-0.865-15.537,4.466-17.49,12.198H180.891c-1.953-7.732-9.32-13.06-17.49-12.198
			c-6.973,0.738-12.434,5.778-14.065,12.198h-20.961V5.863c0-3.238-2.625-5.863-5.863-5.863h-16.019
			c-3.238,0-5.863,2.625-5.863,5.863v31.315h-9.351c-6.128,0-11.098,4.969-11.098,11.098s4.97,11.098,11.098,11.098h9.351v31.315
			c0,3.238,2.625,5.863,5.863,5.863h16.018c3.238,0,5.863-2.625,5.863-5.863V59.373h22.278l6.989,66.088
			c0.316,2.991,1.455,5.837,3.288,8.221l48.088,62.515l0.008,294.614c0,11.702,9.486,21.188,21.189,21.188
			c11.703,0,21.189-9.486,21.189-21.188V321.449h9.148v169.362c0,11.702,9.486,21.188,21.189,21.188
			c11.703,0,21.189-9.486,21.189-21.188c0-22.119-0.385-271.929-0.385-294.047l48.525-63.081c1.835-2.384,2.973-5.23,3.289-8.222
			l6.988-66.087h22.278v31.315c0,3.238,2.625,5.863,5.863,5.863h16.018c3.238,0,5.863-2.625,5.863-5.863V59.373h9.352
			c6.128,0,11.098-4.969,11.098-11.098S426.85,37.178,420.722,37.178z M322.433,117.458l-40.335,52.436h-52.194l-40.335-52.436
			l-6.144-58.085h145.152L322.433,117.458z"/>
	</g>
</g>
<g>
</g>
<g>
</g>
<g>
</g>
<g>
</g>
<g>
</g>
<g>
</g>
<g>
</g>
<g>
</g>
<g>
</g>
<g>
</g>
<g>
</g>
<g>
</g>
<g>
</g>
<g>
</g>
<g>
</g>
</svg>
