<?xml version="1.0" encoding="iso-8859-1"?>
<!-- Generator: Adobe Illustrator 19.0.0, SVG Export Plug-In . SVG Version: 6.00 Build 0)  -->
<svg version="1.1" id="Layer_1" xmlns="http://www.w3.org/2000/svg" xmlns:xlink="http://www.w3.org/1999/xlink" x="0px" y="0px"
	 viewBox="0 0 511.998 511.998" style="enable-background:new 0 0 511.998 511.998;" xml:space="preserve">
<g>
	<g>
		<path d="M345.34,367.666l-7.998-79.438l0.469-162.622c0-15.751-12.769-28.521-28.522-28.521h-50.862
			c-13.559,0-24.907,9.462-27.804,22.142l18.337-2.781l-58.704,27.574c-6.132,2.877-10.485,8.645-11.498,15.442
			c-2.306,15.486-9.357,62.808-11.992,80.501c-1.77,11.863,7.058,22.654,19.011,23.333c10.371,0.594,19.719-6.819,21.287-17.33
			l10.383-69.698l50.079-23.493l-37.053,30.819l-0.568,3.812v94.333l-10.71-15.647c-6.377,10.143-17.343,17.694-28.939,17.694
			c-7.494,0-12.989-0.869-19.336-5.935l64.17,94.338c5.77,8.492,16.417,12.192,26.196,9.132c9.791-3.064,16.42-12.175,16.322-22.434
			l-0.681-70.662h13.636l8.231,81.769l-11.718,116.4c-1.377,13.679,9.348,25.604,23.182,25.604
			c11.802-0.001,21.918-8.947,23.125-20.941l11.953-118.731C345.495,370.779,345.495,369.216,345.34,367.666z"/>
	</g>
</g>
<g>
	<g>
		<circle cx="284.077" cy="42.221" r="42.221"/>
	</g>
</g>
<g>
</g>
<g>
</g>
<g>
</g>
<g>
</g>
<g>
</g>
<g>
</g>
<g>
</g>
<g>
</g>
<g>
</g>
<g>
</g>
<g>
</g>
<g>
</g>
<g>
</g>
<g>
</g>
<g>
</g>
</svg>
