<?xml version="1.0" encoding="iso-8859-1"?>
<!-- Generator: Adobe Illustrator 19.0.0, SVG Export Plug-In . SVG Version: 6.00 Build 0)  -->
<svg version="1.1" id="Layer_1" xmlns="http://www.w3.org/2000/svg" xmlns:xlink="http://www.w3.org/1999/xlink" x="0px" y="0px"
	 viewBox="0 0 511.999 511.999" style="enable-background:new 0 0 511.999 511.999;" xml:space="preserve">
<g>
	<g>
		<path d="M366.615,116.278c-4.306-4.304-10.146-6.722-16.234-6.719l-86.525,0.056c-3.906,0.002-7.633,1.648-10.266,4.535
			c-2.631,2.888-3.928,6.749-3.572,10.64l11.322,2.349c3.097-0.418,62.537-8.441,66.12-8.925l-70.04,22.861l-5.807-1.205
			l4.222,39.922c2.829,0.4,5.642,0.241,8.624-0.732l74.88-24.442l-76.343,41.298c0.001,18.533,0.01,265.647,0.01,291.186
			c0,13.75,11.146,24.896,24.896,24.896s24.896-11.146,24.896-24.896V288.1h10.75v199.002c0,13.75,11.146,24.896,24.896,24.896
			s24.896-11.146,24.896-24.896c0-162.184,0-226.827,0-354.595C373.341,126.42,370.921,120.582,366.615,116.278z"/>
	</g>
</g>
<g>
	<g>
		<circle cx="318.169" cy="42.994" r="42.994"/>
	</g>
</g>
<g>
	<g>
		<path d="M188.301,126.733l-26.602-5.522c-10.35-2.151-20.49,4.502-22.638,14.858c-2.149,10.353,4.502,20.49,14.858,22.638
			l38.611,8.013L188.301,126.733z"/>
	</g>
</g>
<g>
	<g>
		<path d="M246.307,200.412L236.048,103.4c-1.113-10.516-10.534-18.138-21.055-17.026c-10.516,1.112-18.138,10.538-17.026,21.055
			l10.259,97.012c1.111,10.498,10.515,18.138,21.055,17.026C239.797,220.355,247.419,210.929,246.307,200.412z"/>
	</g>
</g>
<g>
</g>
<g>
</g>
<g>
</g>
<g>
</g>
<g>
</g>
<g>
</g>
<g>
</g>
<g>
</g>
<g>
</g>
<g>
</g>
<g>
</g>
<g>
</g>
<g>
</g>
<g>
</g>
<g>
</g>
</svg>
