<?xml version="1.0" encoding="iso-8859-1"?>
<!-- Generator: Adobe Illustrator 19.0.0, SVG Export Plug-In . SVG Version: 6.00 Build 0)  -->
<svg version="1.1" id="Layer_1" xmlns="http://www.w3.org/2000/svg" xmlns:xlink="http://www.w3.org/1999/xlink" x="0px" y="0px"
	 viewBox="0 0 511.991 511.991" style="enable-background:new 0 0 511.991 511.991;" xml:space="preserve">
<g>
	<g>
		<circle cx="288.319" cy="43.778" r="43.778"/>
	</g>
</g>
<g>
	<g>
		<path d="M496.362,166.967c-2.206-9.454-11.657-15.329-21.113-13.125L347.51,183.646c-9.452,2.205-15.331,11.657-13.125,21.113
			c0.58,2.486,1.666,4.721,3.116,6.631l-59.942-15.406l-24.799-71.251l35.927,53.645l12.998-34.043
			c5.827-15.26-1.82-32.354-17.081-38.181L233.75,86.689c-5.429-2.078-11.298-2.74-17.053-1.924L133.889,96.51
			c-6.411,0.913-11.971,4.895-14.898,10.67c-2.927,5.774-2.851,12.614,0.202,18.324l40.788,76.256l-16.349,44.658
			c-2.4,5.245-2.867,11.384-0.805,17.258l14.824,42.225l-61.845-6.747c-12.685-1.382-24.092,7.777-25.476,20.464
			c-1.384,12.685,7.778,24.092,20.464,25.476l98.299,10.725c7.874,0.86,15.66-2.376,20.604-8.604
			c4.934-6.216,6.333-14.53,3.704-22.018l-21.136-60.207l49.208,76.439l-34.863,98.189c-3.334,9.39-0.211,19.482,7.034,25.496
			H38.603c-12.945,0-23.438,10.494-23.438,23.438s10.494,23.438,23.438,23.438h367.981c12.944,0,23.438-10.494,23.438-23.438
			s-10.494-23.438-23.438-23.438h-15.4l73.191-272.327c0.029-0.107,0.042-0.214,0.069-0.32l18.791-4.385
			C492.692,185.875,498.568,176.422,496.362,166.967z M178.723,152.682l-11.174-20.891l20.252-2.883L178.723,152.682z
			 M342.646,465.113h-99.493c3.095-2.568,5.564-5.97,7.008-10.034l38.635-108.817c2.381-6.707,1.539-14.137-2.284-20.14
			l-33.905-53.25l7.885-20.65l-7.851-2.018c-17.097-4.395-26.975-19.414-27.995-29.153l-8.444-80.662
			c29.273,84.107,27.452,78.943,27.828,79.837c2.233,5.32,6.674,9.405,12.161,11.188c0.923,0.299-4.075-1.008,77.948,20.074h0.001
			c9.522,2.446,19.267-2.453,23.109-11.252c3.34-7.648,1.516-16.293-4.164-21.979c0.802-0.073,1.608-0.185,2.414-0.372
			c25.814-6.022,31.013-7.236,57.179-13.34L342.646,465.113z"/>
	</g>
</g>
<g>
</g>
<g>
</g>
<g>
</g>
<g>
</g>
<g>
</g>
<g>
</g>
<g>
</g>
<g>
</g>
<g>
</g>
<g>
</g>
<g>
</g>
<g>
</g>
<g>
</g>
<g>
</g>
<g>
</g>
</svg>
