<?xml version="1.0" encoding="iso-8859-1"?>
<!-- Generator: Adobe Illustrator 19.0.0, SVG Export Plug-In . SVG Version: 6.00 Build 0)  -->
<svg version="1.1" id="Layer_1" xmlns="http://www.w3.org/2000/svg" xmlns:xlink="http://www.w3.org/1999/xlink" x="0px" y="0px"
	 viewBox="0 0 511.998 511.998" style="enable-background:new 0 0 511.998 511.998;" xml:space="preserve">
<g>
	<g>
		<circle cx="264.358" cy="55.54" r="42.502"/>
	</g>
</g>
<g>
	<g>
		<path d="M418.946,203.093c-9.346-5.34-21.253-2.092-26.593,7.255c-3.145,5.504-3.291,11.889-0.987,17.305l-3.069,5.372
			l-29.226-30.973l-24.156-74.089c-2.414-7.404-8.961-12.298-16.251-12.975v-0.267h-94.239c-0.222-0.096-0.431-0.208-0.659-0.297
			L166.9,92.138l-4.832-55.134l10.35,0.042c3.541,4.701,9.143,7.764,15.484,7.791c10.765,0.043,19.527-8.647,19.57-19.411
			c0.043-10.765-8.647-19.527-19.412-19.57c-6.339-0.026-11.968,2.992-15.546,7.664l-12.904-0.052
			c-2.524-8.414-10.677-14.185-19.774-13.396c-7.886,0.692-14.208,6.129-16.418,13.25l-5.138-0.021
			c-3.541-4.701-9.143-7.765-15.484-7.791c-10.763-0.045-19.526,8.646-19.57,19.41c-0.044,10.765,8.647,19.527,19.412,19.57
			c6.339,0.025,11.968-2.992,15.546-7.664l5.879,0.023l6.159,70.278c0.628,7.159,5.256,13.345,11.947,15.966l67.787,26.565
			c0.032,0.013,0.065,0.021,0.099,0.033v132.598l-46.906,199.465c-3.11,13.228,5.091,26.474,18.319,29.585
			c13.235,3.11,26.475-5.095,29.585-18.319l47.575-202.305h11.464l47.575,202.305c3.11,13.226,16.352,21.429,29.585,18.319
			c13.229-3.111,21.43-16.357,18.319-29.585L318.664,282.29v-82.082l5.74,17.608c0.866,2.657,2.31,5.089,4.228,7.121l40.04,42.435
			l-4.21,7.369c-5.836,0.765-11.261,4.133-14.406,9.638c-5.34,9.346-2.092,21.253,7.255,26.593
			c9.346,5.34,21.253,2.092,26.593-7.255c3.145-5.504,3.291-11.889,0.987-17.305l2.415-4.227c6.139,1.285,12.386-0.51,16.88-4.749
			c7.523-7.1,7.929-18.9,0.98-26.51l6.629-11.603c5.836-0.765,11.261-4.134,14.406-9.638
			C431.541,220.339,428.292,208.434,418.946,203.093z"/>
	</g>
</g>
<g>
</g>
<g>
</g>
<g>
</g>
<g>
</g>
<g>
</g>
<g>
</g>
<g>
</g>
<g>
</g>
<g>
</g>
<g>
</g>
<g>
</g>
<g>
</g>
<g>
</g>
<g>
</g>
<g>
</g>
</svg>
