<?xml version="1.0" encoding="iso-8859-1"?>
<!-- Generator: Adobe Illustrator 19.0.0, SVG Export Plug-In . SVG Version: 6.00 Build 0)  -->
<svg version="1.1" id="Layer_1" xmlns="http://www.w3.org/2000/svg" xmlns:xlink="http://www.w3.org/1999/xlink" x="0px" y="0px"
	 viewBox="0 0 512 512" style="enable-background:new 0 0 512 512;" xml:space="preserve">
<g>
	<g>
		<path d="M128.409,172.138c-13.739-16.825-38.508-19.314-55.319-5.585c-16.818,13.734-19.319,38.501-5.584,55.319
			c13.735,16.82,38.501,19.318,55.318,5.585C139.641,213.724,142.143,188.956,128.409,172.138z"/>
	</g>
</g>
<g>
	<g>
		<path d="M495.432,357.937c-0.013,0-0.026,0-0.039,0c-149.637,0.348-179.122,0.433-207.516,0.433l43.188-52.963l135.495-27.691
			c12.258-2.505,20.164-14.473,17.659-26.729c-2.505-12.257-14.468-20.171-26.729-17.659L314.08,262.637
			c-5.119,1.046-9.719,3.83-13.021,7.879l-60.743,74.492l28.099-56.193l1.89-39.535l15.079,5.804
			c6.704-11.114,16.914-12.02,24.384-13.546l43.468-8.884l-95.922-36.921c-14.385-5.542-30.027,4.638-30.765,20.058l-2.52,52.685
			l-32.853-38.065l11.904-91.391c1.677-12.884-11.175-22.81-23.222-17.944l-63.257,25.598c8.855,3.273,16.784,8.855,22.929,16.382
			c2.225,2.725,4.154,5.625,5.781,8.656l20.312-8.22l-7.031,53.983l-47.52,39.716l26.199,10.484l-68.305-4.862l4.561-18.01
			c-6.521-3.334-12.375-7.999-17.149-13.845c-4.556-5.579-7.789-11.808-9.76-18.307l-15.594,61.57
			c-2.6,10.267,4.742,20.408,15.326,21.123l100.832,6.21l-23.591,6.279l41.503,50.823l-148.562,0.389
			C7.382,359.065-0.021,366.5,0,375.651c0.022,9.139,7.436,16.533,16.569,16.533c0.013,0,0.026,0,0.039,0
			c21.044-0.049,456.156-1.053,478.859-1.105c9.152-0.022,16.553-7.457,16.533-16.608
			C511.979,365.331,504.564,357.937,495.432,357.937z"/>
	</g>
</g>
<g>
</g>
<g>
</g>
<g>
</g>
<g>
</g>
<g>
</g>
<g>
</g>
<g>
</g>
<g>
</g>
<g>
</g>
<g>
</g>
<g>
</g>
<g>
</g>
<g>
</g>
<g>
</g>
<g>
</g>
</svg>
