<?xml version="1.0" encoding="iso-8859-1"?>
<!-- Generator: Adobe Illustrator 19.0.0, SVG Export Plug-In . SVG Version: 6.00 Build 0)  -->
<svg version="1.1" id="Layer_1" xmlns="http://www.w3.org/2000/svg" xmlns:xlink="http://www.w3.org/1999/xlink" x="0px" y="0px"
	 viewBox="0 0 512 512" style="enable-background:new 0 0 512 512;" xml:space="preserve">
<g>
	<g>
		<path d="M111.83,336.158c-6.115,5.07-13.459,8.423-21.431,9.71l30.256,19.697l-66.224,96.143
			c-8.493,12.329-5.382,29.209,6.947,37.701c12.338,8.497,29.213,5.374,37.701-6.947l42.649-61.975
			c6.521-21.034,24.304-72.495,24.161-72.824L111.83,336.158z"/>
	</g>
</g>
<g>
	<g>
		<path d="M224.511,298.69l-55.8-8.61l45.107-131.69c4.961-14.482-2.759-30.246-17.241-35.206l-59.565-20.403
			c-5.677-1.944-11.957-2.048-17.931-0.006L12.642,130.792c-8.167,2.15-13.52,9.988-12.523,18.374
			c3.84,32.301,8.747,67.883,12.399,91.694c1.44,9.392,6.129,18.329,15.646,21.526c1.791,0.601,3.601,0.943,5.403,1.094
			l-5.489-47.987c-2.32-20.29,9.832-37.178,19.924-42.301c10.455-5.307,74.015-37.575,83.664-42.474l-73.692,62.117
			c-5.889,4.965-8.88,12.533-8.009,20.155c1.212,10.598,9.43,82.456,10.418,91.091c1.454,12.728,12.99,21.603,25.395,20.194
			c0.004,0,0.009,0,0.013-0.001c12.378-1.416,21.403-12.453,20.22-24.961c-0.014-0.149-0.011-0.297-0.029-0.446L96.965,220
			l66.732-56.252l-43.889,62.102l8.065,70.515c1.791,15.656-4.652,30.35-16.043,39.795l71.781,11.076
			c0.186,0.428-35.426,109.157-39.466,121.281c-4.733,14.203,2.946,29.554,17.148,34.286c14.201,4.732,29.554-2.945,34.286-17.149
			l50.515-151.605C251.401,318.123,241.084,301.247,224.511,298.69z"/>
	</g>
</g>
<g>
	<g>
		<circle cx="205.107" cy="54.127" r="46.328"/>
	</g>
</g>
<g>
	<g>
		<path d="M493.066,315.474H334.109c-10.456,0-18.934,8.476-18.934,18.934v150.859c0,10.456,8.477,18.934,18.934,18.934h158.957
			c10.456,0,18.934-8.477,18.934-18.934V334.408C512,323.951,503.524,315.474,493.066,315.474z"/>
	</g>
</g>
<g>
</g>
<g>
</g>
<g>
</g>
<g>
</g>
<g>
</g>
<g>
</g>
<g>
</g>
<g>
</g>
<g>
</g>
<g>
</g>
<g>
</g>
<g>
</g>
<g>
</g>
<g>
</g>
<g>
</g>
</svg>
