<?xml version="1.0" encoding="iso-8859-1"?>
<!-- Generator: Adobe Illustrator 19.0.0, SVG Export Plug-In . SVG Version: 6.00 Build 0)  -->
<svg version="1.1" id="Layer_1" xmlns="http://www.w3.org/2000/svg" xmlns:xlink="http://www.w3.org/1999/xlink" x="0px" y="0px"
	 viewBox="0 0 512.003 512.003" style="enable-background:new 0 0 512.003 512.003;" xml:space="preserve">
<g>
	<g>
		<path d="M179.284,355.161l-13.867,2.48v112.194c0,8.349,6.768,15.117,15.117,15.117c8.349,0,15.117-6.768,15.117-15.117v-85.492
			C188.292,375.972,182.645,366.067,179.284,355.161z"/>
	</g>
</g>
<g>
	<g>
		<path d="M332.021,355.036c-3.357,10.955-9.016,20.905-16.402,29.306v85.493c0,8.349,6.768,15.117,15.117,15.117
			s15.117-6.768,15.117-15.117V357.51L332.021,355.036z"/>
	</g>
</g>
<g>
	<g>
		<path d="M91.624,292.256c-3.902,4.806-6.483,10.719-7.204,17.191L65.945,475.221c-2.025,18.173,11.065,34.546,29.237,36.571
			c18.072,2.028,34.536-10.982,36.571-29.237l15.736-141.203l23.346-4.174C87.156,289.794,93.158,293.224,91.624,292.256z"/>
	</g>
</g>
<g>
	<g>
		<path d="M446.057,475.221l-18.474-165.774c-1.623-14.573-12.64-26.343-27.075-28.924l-8.095-1.447
			c1.352-2.334,2.37-4.912,2.935-7.703c3.608-17.815,20.181-99.657,23.823-117.635c2.479-12.236-4.281-24.465-15.962-28.875
			l-79.583-30.042c-7.265-2.741-17.096-4.436-21.299,1.549c-3.437,6.04-7.632,11.591-12.472,16.514
			c-14.435,14.685-34.505,23.814-56.674,23.814c-18.124,0-36.137-6.254-50.627-18.247c-7.429,0.831-14.426,4.894-18.724,11.709
			c-6.854,10.866-58.502,92.744-67.882,107.616c-7.754,12.292-3.65,28.582,8.99,35.74l72.663,41.145
			c3.775-17.32,13.183-32.549,26.204-43.683l-50.539-28.617c14.91-23.638,16.638-26.376,29.299-46.449v36.691l43.78,24.79
			c9.077-3.591,18.952-5.588,29.29-5.588c13.822,0,26.834,3.533,38.186,9.736c24.819,13.566,41.693,39.919,41.693,70.142
			c0,1.498-0.05,2.984-0.131,4.462l29.132,5.209l15.737,141.204c2.035,18.272,18.516,31.265,36.571,29.237
			C434.994,509.767,448.082,493.393,446.057,475.221z M345.437,261.264c-0.646,3.193-0.641,6.361-0.116,9.388l-16.618-2.972v-19.496
			v-97.015l36.257,13.687C362.866,175.202,347.558,250.795,345.437,261.264z"/>
	</g>
</g>
<g>
	<g>
		<circle cx="233.18" cy="57.177" r="57.177"/>
	</g>
</g>
<g>
	<g>
		<path d="M255.635,274.137c-31.78,0-57.544,25.763-57.544,57.545c0,31.78,25.763,57.544,57.544,57.544s57.544-25.763,57.544-57.544
			C313.178,299.9,287.415,274.137,255.635,274.137z M255.635,363.585c-17.592,0-31.905-14.313-31.905-31.904
			c0-17.592,14.313-31.904,31.905-31.904c17.592,0,31.904,14.313,31.904,31.904C287.539,349.273,273.226,363.585,255.635,363.585z"
			/>
	</g>
</g>
<g>
	<g>
		<path d="M255.635,314.665c-9.383,0-17.015,7.634-17.015,17.016c0,9.381,7.632,17.016,17.015,17.016
			c9.381,0,17.016-7.634,17.016-17.016C272.651,322.299,265.016,314.665,255.635,314.665z"/>
	</g>
</g>
<g>
</g>
<g>
</g>
<g>
</g>
<g>
</g>
<g>
</g>
<g>
</g>
<g>
</g>
<g>
</g>
<g>
</g>
<g>
</g>
<g>
</g>
<g>
</g>
<g>
</g>
<g>
</g>
<g>
</g>
</svg>
