<?xml version="1.0" encoding="iso-8859-1"?>
<!-- Generator: Adobe Illustrator 19.0.0, SVG Export Plug-In . SVG Version: 6.00 Build 0)  -->
<svg version="1.1" id="Layer_1" xmlns="http://www.w3.org/2000/svg" xmlns:xlink="http://www.w3.org/1999/xlink" x="0px" y="0px"
	 viewBox="0 0 512 512" style="enable-background:new 0 0 512 512;" xml:space="preserve">
<g>
	<g>
		<path d="M447.929,117.727c-4.293-6.572-13.195-7.529-18.766-2.484c-22.59,20.452-24.27,21.849-30.17,27.755l-32.16-4.431
			l-3.264,8.831c4.075,8.507,4.667,18.33,1.573,27.29l6.408,0.882c-8.368,11.835-15.685,24.353-21.877,37.417
			c-1.032,20.236,0.823,40.573,5.581,60.402c7.337-34.409,22.545-66.541,44.397-93.947l12.835,1.768
			c9.819,1.36,18.935-5.505,20.295-15.38c0.821-5.957-1.386-11.622-5.426-15.479l18.201-16.479
			C450.108,129.75,451.287,122.867,447.929,117.727z"/>
	</g>
</g>
<g>
	<g>
		<path d="M352.064,102.663c-6.429-2.381-13.562,0.909-15.938,7.335l-6.275,16.975c8.805-0.312,17.083,2.597,23.59,7.749
			L359.4,118.6C361.775,112.174,358.491,105.038,352.064,102.663z"/>
	</g>
</g>
<g>
	<g>
		<path d="M369.79,470.721c20.18-5.182,35.096-23.494,35.096-45.291c0-8.227-2.132-15.954-5.863-22.668
			c-4.042-7.275-9.965-13.354-17.116-17.587l-30.822-78.791c-13.526-34.577-18.247-71.586-14.162-107.891
			c-1.281,0.209,0.212,0.023-25.228,2.878c-3.45,38.461,1.977,77.483,16.283,114.054l24.446,62.492l-15.738-2.092l-14.644-37.436
			l-3.796,34.985l-45.93-6.105c-3.413,5.495-7.955,10.017-14.021,13.427l7.677,0.371c7.447,0.36,13.691,6.185,14.055,13.632
			c0.426,8.723-6.759,15.553-15.069,15.133c-5.998-0.29-45.499-2.2-50.707-2.451c-7.938-0.384-14.063-7.131-13.679-15.069
			c0.335-6.908,5.673-14.134,16.396-13.614c-7.172-5.028-12.503-12.379-15.005-20.781l-25.212-3.351l12.442-39.078
			c0.861-2.705,1.161-5.558,0.88-8.383l-4.25-42.801c-39.847-7.433-38.686-7.036-42.733-8.495l5.078,51.134l-12.853,40.372
			c-40.851,2.645-73.171,36.596-73.171,78.115c0,22.908,9.84,43.516,25.521,57.834l-11.571,11.573
			c-3.517,3.517-4.167,9.154-1.188,13.137c3.713,4.963,10.785,5.337,15.004,1.119l14.27-14.27
			c10.844,5.679,23.175,8.909,36.265,8.909c11.673,0,204.623-29.823,204.623-29.823l34.605,35.132
			c3.845,3.903,10.129,3.954,14.036,0.106c3.904-3.845,3.952-10.129,0.106-14.035L369.79,470.721z M187.181,427.867
			c-1.206,23.775-20.525,43.094-44.3,44.299c-27.767,1.407-50.576-21.402-49.169-49.169c1.205-23.776,20.523-43.094,44.299-44.3
			C165.778,377.289,188.587,400.099,187.181,427.867z"/>
	</g>
</g>
<g>
	<g>
		<path d="M276.345,4.526c-21.323-11.089-47.407-1.002-55.722,21.548c-6.856,18.595,1.331,39.766,18.915,48.909
			c21.323,11.088,47.404,1.002,55.72-21.547C302.116,34.841,293.93,13.67,276.345,4.526z"/>
	</g>
</g>
<g>
	<g>
		<path d="M329.08,145.061l-61.898,6.948l-37.539-44.723c8.081,5.694,19.952,14.058,37.726,26.582l45.346-5.088
			c0,0-66.685-29.258-106.918-47.052c-12.254-5.419-27.225,2.284-32.704,16.705c-3.937,10.366-34.858,91.771-39.883,105.002
			c-5.437,14.312-0.029,29.891,12.679,34.718c4.24,2.336,0.112,1.14,81.622,16.344l-9.738,89.99
			c-1.385,12.807,8.651,23.935,21.51,23.935c10.887,0,20.256-8.208,21.456-19.285L272.63,239.25
			c1.215-11.227-6.419-21.496-17.52-23.567l-34.287-6.395l8.572-20.716c-2.912-6.19-24.572-52.255-27.337-58.133l43.744,52.117
			c3.814,4.546,9.71,7,15.801,6.319l71.024-7.971c9.184-1.031,16.488-8.663,16.47-17.906
			C349.077,152.069,339.64,143.875,329.08,145.061z"/>
	</g>
</g>
<g>
</g>
<g>
</g>
<g>
</g>
<g>
</g>
<g>
</g>
<g>
</g>
<g>
</g>
<g>
</g>
<g>
</g>
<g>
</g>
<g>
</g>
<g>
</g>
<g>
</g>
<g>
</g>
<g>
</g>
</svg>
