<?xml version="1.0" encoding="iso-8859-1"?>
<!-- Generator: Adobe Illustrator 19.0.0, SVG Export Plug-In . SVG Version: 6.00 Build 0)  -->
<svg version="1.1" id="Layer_1" xmlns="http://www.w3.org/2000/svg" xmlns:xlink="http://www.w3.org/1999/xlink" x="0px" y="0px"
	 viewBox="0 0 511.986 511.986" style="enable-background:new 0 0 511.986 511.986;" xml:space="preserve">
<g>
	<g>
		<circle cx="294.161" cy="53.231" r="53.231"/>
	</g>
</g>
<g>
	<g>
		<path d="M382.403,148.86c-33.42,0-60.513,27.092-60.513,60.513c0,33.42,27.092,60.513,60.513,60.513s60.513-27.092,60.513-60.513
			C442.915,175.952,415.822,148.86,382.403,148.86z M382.403,242.923c-18.501,0-33.552-15.051-33.552-33.551
			c0-18.5,15.051-33.551,33.552-33.551c18.5,0,33.551,15.051,33.551,33.551C415.954,227.873,400.903,242.923,382.403,242.923z"/>
	</g>
</g>
<g>
	<g>
		<path d="M382.403,191.48c-9.867,0-17.895,8.026-17.895,17.894c0,9.867,8.027,17.894,17.895,17.894
			c9.868,0,17.894-8.026,17.894-17.894C400.297,199.506,392.27,191.48,382.403,191.48z"/>
	</g>
</g>
<g>
	<g>
		<path d="M316.522,301.739l-0.482-0.138l-34.951-10.06l43.913-20.925c-11.828-11.093-20.444-25.555-24.312-41.846l-16.145,7.694
			l-27.856-81.625l25.627,42.893l10.383-37.621c5.362-19.122-4.531-38.617-22.095-43.542l-56.718-15.904
			c-17.566-4.925-36.152,6.583-41.514,25.705l-38.831,140.908c-6.054,21.967,6.802,44.694,28.749,50.822l18.837,5.26H84.46
			c-8.5,0-15.391,6.891-15.391,15.391v157.845c0,8.501,6.891,15.391,15.391,15.391h162.06c8.5,0,15.391-6.891,15.391-15.391V346.252
			l17.53,5.046l-0.799,131.571c-0.097,15.984,12.781,29.019,28.765,29.116c0.061,0,0.119,0.001,0.18,0.001
			c15.901-0.001,28.84-12.843,28.936-28.766l0.932-153.493C337.534,316.762,328.981,305.327,316.522,301.739z M223.563,274.981
			L211.04,170.419c39.876,116.846,36.838,108.771,38.946,112.168L223.563,274.981z"/>
	</g>
</g>
<g>
</g>
<g>
</g>
<g>
</g>
<g>
</g>
<g>
</g>
<g>
</g>
<g>
</g>
<g>
</g>
<g>
</g>
<g>
</g>
<g>
</g>
<g>
</g>
<g>
</g>
<g>
</g>
<g>
</g>
</svg>
