<?xml version="1.0" encoding="iso-8859-1"?>
<!-- Generator: Adobe Illustrator 19.0.0, SVG Export Plug-In . SVG Version: 6.00 Build 0)  -->
<svg version="1.1" id="Layer_1" xmlns="http://www.w3.org/2000/svg" xmlns:xlink="http://www.w3.org/1999/xlink" x="0px" y="0px"
	 viewBox="0 0 512 512" style="enable-background:new 0 0 512 512;" xml:space="preserve">
<g>
	<g>
		<path d="M483.521,377.225c12.202,3.124,24.639-4.239,27.761-16.452c3.123-12.21-4.242-24.639-16.452-27.761l-363.166-88.626
			l50.44-49.855c0.695-0.688,1.331-1.434,1.9-2.232l41.775-58.544l9.772,5.7c0.692,5.666,3.911,10.958,9.222,14.056
			c9.019,5.26,20.594,2.214,25.854-6.805c5.26-9.019,2.214-20.594-6.805-25.854c-5.311-3.098-11.501-3.295-16.775-1.107
			l-9.111-5.314c1.477-6.523-0.967-13.589-6.751-17.718c-6.681-4.767-15.615-4.04-21.448,1.27l-8.127-4.74
			c-0.692-5.666-3.911-10.958-9.222-14.056c-9.019-5.26-20.594-2.214-25.854,6.805c-5.26,9.018-2.214,20.594,6.805,25.854
			c5.311,3.098,11.501,3.295,16.775,1.107l5.973,3.484l-39.092,54.784l-52.322,56.774c-5.296,5.747-8.979,12.789-10.679,20.417
			l-18.062,81.097c-1.159,5.203-0.974,10.615,0.537,15.728l16.53,55.929H17.114C7.662,401.164,0,408.827,0,418.278
			c0,9.451,7.662,17.114,17.114,17.114h98.796c11.423,0,19.654-11.005,16.411-21.969l-20.636-69.76
			c0,0,362.861,88.122,365.323,88.752c12.202,3.124,24.639-4.239,27.761-16.452c3.123-12.21-4.243-24.639-16.452-27.761
			c-240.767-61.585-225.275-57.66-226.992-57.991l2.15-9.272L483.521,377.225z"/>
	</g>
</g>
<g>
	<g>
		<circle cx="40.132" cy="249.422" r="39.604"/>
	</g>
</g>
<g>
</g>
<g>
</g>
<g>
</g>
<g>
</g>
<g>
</g>
<g>
</g>
<g>
</g>
<g>
</g>
<g>
</g>
<g>
</g>
<g>
</g>
<g>
</g>
<g>
</g>
<g>
</g>
<g>
</g>
</svg>
