<?xml version="1.0" encoding="iso-8859-1"?>
<!-- Generator: Adobe Illustrator 19.0.0, SVG Export Plug-In . SVG Version: 6.00 Build 0)  -->
<svg version="1.1" id="Layer_1" xmlns="http://www.w3.org/2000/svg" xmlns:xlink="http://www.w3.org/1999/xlink" x="0px" y="0px"
	 viewBox="0 0 512.001 512.001" style="enable-background:new 0 0 512.001 512.001;" xml:space="preserve">
<g>
	<g>
		<path d="M350.27,282.268l0.128-0.023l-20.478-141.9c-8.323,2.932-17.071,4.392-25.684,4.392c-15.869,0-30.634-4.8-42.934-13.014
			l-33.637,34.395l27.883-38.638c-11.165-9.038-19.768-21.107-24.565-34.944l-60.957,100.202c-5.966,9.807-4.432,22.427,3.71,30.518
			c8.148,8.1,20.781,9.546,30.541,3.525l67.497-41.623l-46.753,47.953l9.085,62.951l-64.435,26.354
			c-16.631,6.803-22.923,27.123-13.044,42.133l88.581,134.59c8.68,13.19,26.398,16.818,39.555,8.154
			c13.175-8.672,16.826-26.381,8.156-39.555l-69.499-105.596l110.345-45.132C347.534,311.379,354.533,296.222,350.27,282.268z"/>
	</g>
</g>
<g>
	<g>
		<path d="M203.882,0.602c-26.627,4.197-44.81,29.184-40.613,55.811c3.437,21.809,20.825,37.944,41.635,40.766l22.093-36.316
			c1.428-17.509,8.678-33.397,19.836-45.692C236.151,3.966,220.333-1.991,203.882,0.602z"/>
	</g>
</g>
<g>
	<g>
		<path d="M304.237,11.369c-30.843,0-55.846,25.003-55.846,55.846c-0.001,30.843,25.003,55.846,55.846,55.846
			s55.846-25.003,55.846-55.846S335.08,11.369,304.237,11.369z M304.236,98.178c-17.073,0-30.963-13.889-30.963-30.963
			s13.89-30.963,30.963-30.963S335.2,50.141,335.2,67.215C335.2,84.288,321.309,98.178,304.236,98.178z"/>
	</g>
</g>
<g>
	<g>
		<path d="M304.236,50.701c-9.106,0-16.514,7.409-16.514,16.514c0,9.105,7.409,16.514,16.514,16.514
			c9.106,0,16.514-7.409,16.514-16.514S313.342,50.701,304.236,50.701z"/>
	</g>
</g>
<g>
</g>
<g>
</g>
<g>
</g>
<g>
</g>
<g>
</g>
<g>
</g>
<g>
</g>
<g>
</g>
<g>
</g>
<g>
</g>
<g>
</g>
<g>
</g>
<g>
</g>
<g>
</g>
<g>
</g>
</svg>
