<?xml version="1.0" encoding="iso-8859-1"?>
<!-- Generator: Adobe Illustrator 19.0.0, SVG Export Plug-In . SVG Version: 6.00 Build 0)  -->
<svg version="1.1" id="Layer_1" xmlns="http://www.w3.org/2000/svg" xmlns:xlink="http://www.w3.org/1999/xlink" x="0px" y="0px"
	 viewBox="0 0 512 512" style="enable-background:new 0 0 512 512;" xml:space="preserve">
<g>
	<g>
		<path d="M334.232,402.168l-52.797-21.451h-50.87l-52.797,21.451l-7.574,49.648C182.774,486.898,216.311,512,255.723,512
			c39.83,0,73.65-25.644,85.91-61.314L334.232,402.168z"/>
	</g>
</g>
<g>
	<g>
		<path d="M410.763,460.067L396.8,368.535c-1.33-8.716-7.15-16.09-15.318-19.409l-70.534-28.658V215.947
			c0.807-1.157-3.146,5.539,56.609-96.975c4.015-6.89,3.366-15.543-1.634-21.756L293.465,7.18
			c-6.662-8.281-18.777-9.591-27.056-2.927s-9.59,18.776-2.926,27.056l64.154,79.721c-8.603,14.76-34.033,58.389-43.032,73.828
			h-57.904c-8.999-15.439-34.429-59.069-43.032-73.828l64.154-79.721c6.664-8.28,5.353-20.394-2.926-27.056
			c-8.281-6.665-20.395-5.352-27.056,2.927l-72.457,90.037c-5,6.213-5.649,14.865-1.634,21.756
			c60.13,103.161,55.843,95.905,56.748,97.168v104.555l-69.981,28.432c-8.168,3.32-13.988,10.693-15.318,19.409l-13.962,91.532
			c-2.083,13.662,7.303,26.426,20.964,28.511c13.66,2.083,26.426-7.3,28.511-20.963l11.818-77.476l64.74-26.302h57.466
			l64.739,26.302l11.818,77.476c2.085,13.672,14.86,23.046,28.511,20.963C403.461,486.494,412.847,473.729,410.763,460.067z"/>
	</g>
</g>
<g>
	<g>
		<circle cx="255.945" cy="124.251" r="43.216"/>
	</g>
</g>
<g>
</g>
<g>
</g>
<g>
</g>
<g>
</g>
<g>
</g>
<g>
</g>
<g>
</g>
<g>
</g>
<g>
</g>
<g>
</g>
<g>
</g>
<g>
</g>
<g>
</g>
<g>
</g>
<g>
</g>
</svg>
