<?xml version="1.0" encoding="iso-8859-1"?>
<!-- Generator: Adobe Illustrator 19.0.0, SVG Export Plug-In . SVG Version: 6.00 Build 0)  -->
<svg version="1.1" id="Layer_1" xmlns="http://www.w3.org/2000/svg" xmlns:xlink="http://www.w3.org/1999/xlink" x="0px" y="0px"
	 viewBox="0 0 512 512" style="enable-background:new 0 0 512 512;" xml:space="preserve">
<g>
	<g>
		<circle cx="45.611" cy="148.283" r="38.039"/>
	</g>
</g>
<g>
	<g>
		<path d="M498.298,261.02c-8.253-3.175-17.612-0.94-23.541,5.623c-4.527,5.013-37.813,41.864-42.705,47.28L184,268.941
			c-3.432-6.606-11.044-10.255-18.58-8.362c-6.485,1.63-50.853,12.782-57.877,14.548L64.97,225.272l43.373,35.237l14.149-3.557
			l-4.546-17.545l16.35,14.578l27.716-6.967c11.061-2.781,22.224,0.889,29.539,8.625l16.121,2.923
			c1.779-2.659,2.805-5.86,2.77-9.301c-0.095-9.079-7.562-16.324-16.611-16.267l-33.274,0.35l-41.622-37.204
			c-5.687-5.083-13.471-7.122-20.92-5.479l-64.887,14.317c-12.768,2.94-20.735,15.674-17.795,28.441l28.915,125.576H21.378
			C9.571,359.001,0,368.572,0,380.378c0,11.807,9.571,21.378,21.378,21.378c34.17,0,455.69,0,469.244,0
			c11.806,0,21.378-9.571,21.378-21.378v-99.406H512C512,272.127,506.554,264.195,498.298,261.02z M132.743,359.001l62.416-46.38
			l48.517,46.38H132.743z M391.337,359.001h-84.238c-0.051-0.05-0.096-0.106-0.148-0.157l-40.297-38.524l-85.89-15.576
			c0,0-27.841,7.237-76.607,19.549c-10.376,2.609-20.882-2.28-25.824-11.222l-33.685-60.971l44.515,52.128
			c4.058,4.752,10.456,6.789,16.509,5.268c5.875-1.477,61.749-15.522,67.764-17.034c2.121-0.533,4.034-1.464,5.696-2.68
			l236.059,42.807C406.455,342.262,407.028,341.628,391.337,359.001z"/>
	</g>
</g>
<g>
</g>
<g>
</g>
<g>
</g>
<g>
</g>
<g>
</g>
<g>
</g>
<g>
</g>
<g>
</g>
<g>
</g>
<g>
</g>
<g>
</g>
<g>
</g>
<g>
</g>
<g>
</g>
<g>
</g>
</svg>
