<?xml version="1.0" encoding="iso-8859-1"?>
<!-- Generator: Adobe Illustrator 19.0.0, SVG Export Plug-In . SVG Version: 6.00 Build 0)  -->
<svg version="1.1" id="Layer_1" xmlns="http://www.w3.org/2000/svg" xmlns:xlink="http://www.w3.org/1999/xlink" x="0px" y="0px"
	 viewBox="0 0 512.001 512.001" style="enable-background:new 0 0 512.001 512.001;" xml:space="preserve">
<g>
	<g>
		<path d="M460.677,129.993c-3.431-7.175-12.029-10.208-19.201-6.777L410.983,137.8c3.042,12.953-0.331,26.102-8.238,35.86
			l51.155-24.466C461.073,145.764,464.108,137.167,460.677,129.993z"/>
	</g>
</g>
<g>
	<g>
		<path d="M406.957,464.091c23.422-6.013,40.732-27.266,40.732-52.562c0-22.851-14.132-42.389-34.127-50.387l-36.698-172.118
			l-27.629,8.506l33.762,158.349l-92.043-12.234l-20.879,62.429c-7.95,23.772-33.621,36.353-57.127,28.492
			c-7.511-2.512-13.919-6.823-18.921-12.29c-4.989,24.846-26.927,43.563-53.242,43.563c-29.995,0-54.31-24.315-54.31-54.31
			s24.315-54.31,54.31-54.31c16.681,0,31.6,7.524,41.561,19.36l13.835-45.529l-20.893-50.383l19.159-0.278l-39.804-30.163
			l82.158,33.952l-33.318,99.627c-4.393,13.135,2.694,27.344,15.829,31.737c13.145,4.395,27.348-2.704,31.737-15.829l40.686-121.655
			c4.158-12.428-1.957-25.962-14.032-31.059l-46.772-19.739c11.647-16.745,11.559-16.618,24.39-35.064l-39.181-54.138l61.125,50.001
			c5.349,4.376,12.615,5.883,19.381,3.797l79.798-24.566c11.031-3.396,17.221-15.091,13.824-26.121
			c-3.396-11.031-15.088-17.221-26.122-13.824l-69.09,21.27l-52.451-42.905l46.998,21.378c-1.341-7.665-5.533-14.835-12.297-19.781
			L233.47,75.251c-14.504-10.605-34.954-6.764-44.633,8.35l-70.332,109.832c-11.171,17.444-3.63,40.62,15.351,48.338l9.62,3.912
			l-30.112-0.036c-9.67,0-17.51,7.839-17.51,17.51s7.84,17.51,17.51,17.51h30.752l17.599,42.439
			c-6.722-1.586-13.723-2.45-20.929-2.45c-50.188,0-90.874,40.686-90.874,90.874c0,26.587,11.421,50.503,29.619,67.12
			l-13.686,13.686c-4.498,4.498-4.498,11.792,0,16.29c4.499,4.498,11.792,4.497,16.29,0l16.561-16.562
			c12.586,6.591,26.896,10.339,42.088,10.339c46.176,0,237.481-34.612,237.481-34.612l40.161,40.774
			c4.463,4.531,11.758,4.587,16.289,0.123c4.533-4.463,4.587-11.757,0.123-16.289L406.957,464.091z"/>
	</g>
</g>
<g>
	<g>
		<circle cx="299.559" cy="46.129" r="46.129"/>
	</g>
</g>
<g>
</g>
<g>
</g>
<g>
</g>
<g>
</g>
<g>
</g>
<g>
</g>
<g>
</g>
<g>
</g>
<g>
</g>
<g>
</g>
<g>
</g>
<g>
</g>
<g>
</g>
<g>
</g>
<g>
</g>
</svg>
