<?xml version="1.0" encoding="iso-8859-1"?>
<!-- Generator: Adobe Illustrator 19.0.0, SVG Export Plug-In . SVG Version: 6.00 Build 0)  -->
<svg version="1.1" id="Layer_1" xmlns="http://www.w3.org/2000/svg" xmlns:xlink="http://www.w3.org/1999/xlink" x="0px" y="0px"
	 viewBox="0 0 512 512" style="enable-background:new 0 0 512 512;" xml:space="preserve">
<g>
	<g>
		<path d="M511.539,276.606c-0.021-6.968-1.076-14.025-3.122-20.686l-35.335-115.096c-3.753-12.223-16.649-19.143-28.909-15.514
			l-38.987,11.544c-8.478,2.509-14.263,9.722-15.391,17.947l36.822-9.593l-53.965,30.189l-42.491-21.811
			c-4.043,10.538-10.965,19.655-19.811,26.38l56.377,28.91c0.003,0.002,0.008,0.003,0.011,0.006
			c4.594,2.354,10.448,2.449,15.328-0.269c0.008-0.004,0.016-0.007,0.023-0.011l58.32-33.678l-36.47,34.494l19.204,64.89
			l-28.521,72.853c-1.175,3.004-1.593,6.253-1.211,9.457l10.258,86.381c1.276,10.748,11.021,18.428,21.775,17.152
			c10.749-1.276,18.429-11.026,17.151-21.775l-9.678-81.501l29.365-75.008l10.064-2.979l0.451,161.854
			c0.03,10.806,8.799,19.546,19.6,19.546c0.019,0,0.037,0,0.055,0c10.824-0.03,19.576-8.83,19.546-19.655
			C511.997,439.233,511.702,330.203,511.539,276.606z"/>
	</g>
</g>
<g>
	<g>
		<circle cx="412.669" cy="85.729" r="34.018"/>
	</g>
</g>
<g>
	<g>
		<path d="M304.291,290.551c-0.061-8.354-5.906-15.769-14.456-17.483v-82.983c-5.025,1.369-10.305,2.112-15.758,2.112
			s-10.732-0.744-15.758-2.112v83.636l-94.498,3.496l-17.652-47.107c-2.321-6.194-7.796-10.66-14.329-11.689
			c-6.534-1.029-13.116,1.536-17.23,6.718l-71.573,90.156c-6.302,7.938-4.975,19.482,2.962,25.784
			c7.938,6.301,19.484,4.976,25.784-2.963l51.399-64.744l19.844,52.629c4.507,11.954,15.971,19.845,28.746,19.79l114.911-0.505
			c9.937-0.061,17.948-8.179,17.874-18.119L304.291,290.551z"/>
	</g>
</g>
<g>
	<g>
		<circle cx="354.332" cy="310.133" r="34.008"/>
	</g>
</g>
<g>
	<g>
		<path d="M274.078,85.796c-25.598,0-46.349,20.751-46.349,46.349c0,25.598,20.751,46.349,46.349,46.349
			c25.598,0,46.349-20.751,46.349-46.349S299.676,85.796,274.078,85.796z M274.078,157.556c-14.012,0-25.411-11.4-25.411-25.411
			c0-14.012,11.4-25.411,25.411-25.411s25.411,11.4,25.411,25.411C299.489,146.157,288.091,157.556,274.078,157.556z"/>
	</g>
</g>
<g>
	<g>
		<path d="M274.078,118.155c-7.713,0-13.99,6.277-13.99,13.992c0,7.715,6.276,13.99,13.99,13.99c7.715,0,13.99-6.276,13.99-13.99
			C288.069,124.432,281.792,118.155,274.078,118.155z"/>
	</g>
</g>
<g>
	<g>
		<path d="M365.257,363.818H14.275C6.391,363.818,0,370.208,0,378.092s6.391,14.275,14.275,14.275h350.982
			c7.883,0,14.275-6.391,14.275-14.275C379.531,370.209,373.141,363.818,365.257,363.818z"/>
	</g>
</g>
<g>
</g>
<g>
</g>
<g>
</g>
<g>
</g>
<g>
</g>
<g>
</g>
<g>
</g>
<g>
</g>
<g>
</g>
<g>
</g>
<g>
</g>
<g>
</g>
<g>
</g>
<g>
</g>
<g>
</g>
</svg>
