<?xml version="1.0" encoding="iso-8859-1"?>
<!-- Generator: Adobe Illustrator 19.0.0, SVG Export Plug-In . SVG Version: 6.00 Build 0)  -->
<svg version="1.1" id="Layer_1" xmlns="http://www.w3.org/2000/svg" xmlns:xlink="http://www.w3.org/1999/xlink" x="0px" y="0px"
	 viewBox="0 0 512.001 512.001" style="enable-background:new 0 0 512.001 512.001;" xml:space="preserve">
<g>
	<g>
		<path d="M218.726,213.217l-37.158-67.334l53.19,10.224c15.555,2.987,26.458-15.097,16.528-27.455l-54.959-68.393
			c-5.173-6.437-14.057-8.133-21.121-4.486c3.047,10.666,2.733,21.81-0.539,32.032l20.895,26.004l-29.69-5.707
			c0.084,4.789-0.889,9.726-3.112,14.51c-6.116,12.06-44.089,86.944-49.443,97.503l36.21-109.614
			c2.958-8.951-1.903-18.605-10.854-21.562c-8.951-2.957-18.604,1.902-21.562,10.854l-19.843,60.07l2.719-35.353l-20.76,10.789
			c-11.462,5.957-17.744,18.626-15.567,31.358c4.915,28.751,11.02,64.446,11.406,66.728c1.307,7.734,7.715,13.583,15.538,14.178
			c7.838,0.59,15.053-4.253,17.503-11.666l1.786-5.406l24.077,46.587v212.165c0,12.569,10.19,22.759,22.76,22.759
			s22.76-10.19,22.76-22.759V269.663c0,0,12.048-3.006,127.391-30.999v-46.84L218.726,213.217z"/>
	</g>
</g>
<g>
	<g>
		<path d="M156.655,51.865c-10.541-19.101-34.569-26.039-53.669-15.499c-19.099,10.54-26.038,34.569-15.498,53.669
			c3.321,6.017,7.992,10.811,13.416,14.248l0.436-2.132c3.617-17.638,20.846-29.004,38.484-25.388
			c7.388,1.515,13.622,5.401,18.145,10.663C163.007,76.429,162.949,63.269,156.655,51.865z"/>
	</g>
</g>
<g>
	<g>
		<path d="M425.47,57.82h-23.994V36.795V0h-26.282v36.795V57.82h-23.993c-12.868,0-23.3,10.431-23.3,23.3v295.057
			c0,12.868,10.431,23.3,23.3,23.3h74.269c12.868,0,23.3-10.431,23.3-23.3V81.12C448.77,68.252,438.338,57.82,425.47,57.82z"/>
	</g>
</g>
<g>
</g>
<g>
</g>
<g>
</g>
<g>
</g>
<g>
</g>
<g>
</g>
<g>
</g>
<g>
</g>
<g>
</g>
<g>
</g>
<g>
</g>
<g>
</g>
<g>
</g>
<g>
</g>
<g>
</g>
</svg>
