<?xml version="1.0" encoding="iso-8859-1"?>
<!-- Generator: Adobe Illustrator 19.0.0, SVG Export Plug-In . SVG Version: 6.00 Build 0)  -->
<svg version="1.1" id="Layer_1" xmlns="http://www.w3.org/2000/svg" xmlns:xlink="http://www.w3.org/1999/xlink" x="0px" y="0px"
	 viewBox="0 0 511.999 511.999" style="enable-background:new 0 0 511.999 511.999;" xml:space="preserve">
<g>
	<g>
		<path d="M450.739,291.43c-8.119,0-15.861,1.593-22.951,4.462l16.005,7.299c21.408,9.763,30.881,35.122,21.118,56.53
			c-9.699,21.269-34.978,30.951-56.53,21.118l-15.109-6.891c8.642,23.353,31.108,40.001,57.466,40.001
			c33.833,0,61.261-27.427,61.261-61.261S484.573,291.43,450.739,291.43z"/>
	</g>
</g>
<g>
	<g>
		<circle cx="412.451" cy="145.375" r="47.328"/>
	</g>
</g>
<g>
	<g>
		<path d="M435.121,322.207c-7.249-3.306-61.256-27.936-68.518-31.248l-13.08-81.76l14.888,33.899
			c4.025-6.135,5.245-14.008,2.575-21.446l-16.242-45.248c-4.514-12.575-18.368-19.111-30.943-14.597
			c-10.876,3.904-172.061,61.76-180.554,64.81l0.017,0.048c-10.3,4.477-16.277,15.78-13.651,27.115l26.078,112.534l-131.971,0.149
			C10.605,366.476-0.015,377.119,0,390.234c0.016,13.105,10.643,23.719,23.745,23.717c0.009,0,0.018,0,0.027,0l161.814-0.184
			c15.256-0.017,26.549-14.241,23.105-29.105l-16.913-72.98l115.542-41.474l3.687-51.131l14.444,90.286
			c1.16,7.222,5.842,13.349,12.465,16.37l79.139,36.092c10.075,4.594,22.113,0.884,27.784-8.77
			C451.468,341.767,446.751,327.511,435.121,322.207z"/>
	</g>
</g>
<g>
</g>
<g>
</g>
<g>
</g>
<g>
</g>
<g>
</g>
<g>
</g>
<g>
</g>
<g>
</g>
<g>
</g>
<g>
</g>
<g>
</g>
<g>
</g>
<g>
</g>
<g>
</g>
<g>
</g>
</svg>
