<?xml version="1.0" encoding="iso-8859-1"?>
<!-- Generator: Adobe Illustrator 19.0.0, SVG Export Plug-In . SVG Version: 6.00 Build 0)  -->
<svg version="1.1" id="Layer_1" xmlns="http://www.w3.org/2000/svg" xmlns:xlink="http://www.w3.org/1999/xlink" x="0px" y="0px"
	 viewBox="0 0 512 512" style="enable-background:new 0 0 512 512;" xml:space="preserve">
<g>
	<g>
		<path d="M163.954,321.976l-150.54,78.661c-12.226,6.388-16.956,21.476-10.569,33.702c4.458,8.532,13.152,13.414,22.156,13.414
			c3.896,0,7.853-0.916,11.545-2.845l148.653-77.675L163.954,321.976z"/>
	</g>
</g>
<g>
	<g>
		<path d="M498.586,400.637l-150.54-78.661l-21.245,45.256l148.653,77.675c3.694,1.93,7.647,2.845,11.545,2.845
			c9.002,0,17.698-4.883,22.156-13.414C515.542,422.113,510.812,407.025,498.586,400.637z"/>
	</g>
</g>
<g>
	<g>
		<path d="M352.527,267.372c-2.9-10.373-21.763-77.871-24.589-87.983c-2.147-7.686-8.679-12.967-16.131-13.895l-110.239-0.107
			c-8.013,0.414-15.229,5.847-17.508,14.001c-2.826,10.111-21.691,77.611-24.589,87.983c-1.24,4.434-0.844,9.164,1.112,13.33
			l53.076,113.063c4.515,9.62,15.962,13.725,25.548,9.226c9.574-4.495,13.733-15.943,9.225-25.548l-0.108-0.23L198.388,270.84
			l18.78-67.196l-5.342,61.728l36.524,77.806h15.298c4.738-10.094,18.849-40.153,24.419-52.019l12.105-25.787l-5.342-61.728
			l18.78,67.196l-50.044,106.604c-4.508,9.602-0.378,21.041,9.225,25.548c9.608,4.51,21.042,0.373,25.548-9.226l53.076-113.063
			C353.372,276.535,353.767,271.804,352.527,267.372z"/>
	</g>
</g>
<g>
	<g>
		<circle cx="256.918" cy="107.382" r="43.135"/>
	</g>
</g>
<g>
</g>
<g>
</g>
<g>
</g>
<g>
</g>
<g>
</g>
<g>
</g>
<g>
</g>
<g>
</g>
<g>
</g>
<g>
</g>
<g>
</g>
<g>
</g>
<g>
</g>
<g>
</g>
<g>
</g>
</svg>
