<?xml version="1.0" encoding="iso-8859-1"?>
<!-- Generator: Adobe Illustrator 19.0.0, SVG Export Plug-In . SVG Version: 6.00 Build 0)  -->
<svg version="1.1" id="Layer_1" xmlns="http://www.w3.org/2000/svg" xmlns:xlink="http://www.w3.org/1999/xlink" x="0px" y="0px"
	 viewBox="0 0 511.999 511.999" style="enable-background:new 0 0 511.999 511.999;" xml:space="preserve">
<g>
	<g>
		<path d="M419.648,349.719l-56.896-4.361l8.924-122.857c0.998-13.743-9.334-25.694-23.077-26.692l-10.696-0.777l-15.321,24.731
			l30.77-81.227l0.002-0.004c1.155-3.051,1.581-6.332,1.242-9.579C341.563,3.899,343.275,20.268,343.077,18.533
			c-1.319-11.49-11.661-19.597-22.941-18.419c-11.49,1.198-19.835,11.484-18.637,22.974l10.971,105.264l-32.485,91.409l4.357-27.414
			c-10.236,2.5-18.155,11.355-18.959,22.431l-10.008,137.786l-61.565,67.113L84.857,472.235
			c-10.406,5.02-14.771,17.524-9.753,27.929c5.021,10.407,17.526,14.771,27.929,9.753l112.568-54.302
			c2.388-1.152,4.535-2.747,6.327-4.701l69.856-68.903l99.096,7.46l-27.446,95.845c-3.181,11.107,3.245,22.689,14.351,25.868
			c11.102,3.18,22.689-3.242,25.869-14.351l34.506-120.501C441.805,363.607,432.838,350.73,419.648,349.719z"/>
	</g>
</g>
<g>
	<g>
		<path d="M368.156,98.703l2.973,28.523c0.606,5.795-0.165,11.74-2.229,17.192c-0.813,2.147,1.825-2.36-21.238,34.864
			c1.322,0.225,2.663,0.394,4.027,0.492c22.97,1.668,42.943-15.599,44.611-38.569C397.704,121.87,385.692,104.662,368.156,98.703z"
			/>
	</g>
</g>
<g>
</g>
<g>
</g>
<g>
</g>
<g>
</g>
<g>
</g>
<g>
</g>
<g>
</g>
<g>
</g>
<g>
</g>
<g>
</g>
<g>
</g>
<g>
</g>
<g>
</g>
<g>
</g>
<g>
</g>
</svg>
