<?xml version="1.0" encoding="iso-8859-1"?>
<!-- Generator: Adobe Illustrator 19.0.0, SVG Export Plug-In . SVG Version: 6.00 Build 0)  -->
<svg version="1.1" id="Layer_1" xmlns="http://www.w3.org/2000/svg" xmlns:xlink="http://www.w3.org/1999/xlink" x="0px" y="0px"
	 viewBox="0 0 512.001 512.001" style="enable-background:new 0 0 512.001 512.001;" xml:space="preserve">
<g>
	<g>
		<path d="M432.775,476.53l-17.197-112.733c-1.376-9.018-6.677-16.964-14.475-21.696l-44.827-27.21c-23.377,0-178.235,0-200.505,0
			l-44.826,27.21c-7.799,4.733-13.099,12.678-14.475,21.696L79.272,476.53c-2.567,16.826,8.994,32.546,25.819,35.114
			c16.823,2.565,32.547-8.99,35.114-25.819l15.027-98.505l71.119-43.17h59.346l71.12,43.17l15.027,98.505
			c2.568,16.834,18.296,28.385,35.114,25.819C423.781,509.077,435.341,493.357,432.775,476.53z"/>
	</g>
</g>
<g>
	<g>
		<circle cx="255.959" cy="53.226" r="53.226"/>
	</g>
</g>
<g>
	<g>
		<path d="M495.586,261.623h-13.602c0-25.442,0-19.944,0-45.546c0-4.71-3.818-8.528-8.528-8.528h-23.298
			c-4.71,0-8.528,3.818-8.528,8.528c0,25.603,0,20.102,0,45.546h-31.174c-0.464-14.15-1.645-50.168-2.087-63.645
			c-0.224-6.831-3.386-13.234-8.675-17.563l-57.73-47.376c-7.19-5.9-16.204-9.125-25.505-9.125h-120.99
			c-9.282,0-18.278,3.212-25.462,9.091l-57.934,47.411c-5.289,4.329-8.453,10.732-8.675,17.563
			c-0.442,13.506-1.625,49.56-2.087,63.645H70.369c0-25.442,0-19.944,0-45.546c0-4.71-3.818-8.528-8.528-8.528H38.543
			c-4.71,0-8.528,3.818-8.528,8.528c0,25.603,0,20.102,0,45.546h-13.6c-8.916,0-16.141,7.227-16.141,16.141
			c0,8.915,7.227,16.141,16.141,16.141h13.6c0,25.442,0,19.944,0,45.546c0,4.71,3.818,8.528,8.528,8.528h23.298
			c4.71,0,8.528-3.818,8.528-8.528c0-25.603,0-20.102,0-45.546h32.739c3.767,7.522,11.429,12.795,20.427,13.09
			c0.265,0.009,0.528,0.013,0.791,0.013c9.219-0.001,17.257-5.314,21.163-13.104h220.784c3.906,7.791,11.944,13.105,21.164,13.104
			c0.262,0,0.526-0.004,0.791-0.013c8.998-0.295,16.66-5.57,20.427-13.09h32.973c0,25.442,0,19.944,0,45.546
			c0,4.71,3.818,8.528,8.528,8.528h23.298c4.71,0,8.528-3.818,8.528-8.528c0-25.603,0-20.102,0-45.546h13.602
			c8.917-0.001,16.143-7.228,16.143-16.142C511.727,268.85,504.5,261.623,495.586,261.623z M148.738,261.622
			c0.72-21.975,0.282-8.605,1.684-51.34l37.244-30.485v60.841h136.033v-61.17l37.645,30.814c1.18,35.998,0.816,24.887,1.684,51.34
			H148.738z"/>
	</g>
</g>
<g>
</g>
<g>
</g>
<g>
</g>
<g>
</g>
<g>
</g>
<g>
</g>
<g>
</g>
<g>
</g>
<g>
</g>
<g>
</g>
<g>
</g>
<g>
</g>
<g>
</g>
<g>
</g>
<g>
</g>
</svg>
