<?xml version="1.0" encoding="iso-8859-1"?>
<!-- Generator: Adobe Illustrator 19.0.0, SVG Export Plug-In . SVG Version: 6.00 Build 0)  -->
<svg version="1.1" id="Layer_1" xmlns="http://www.w3.org/2000/svg" xmlns:xlink="http://www.w3.org/1999/xlink" x="0px" y="0px"
	 viewBox="0 0 512.001 512.001" style="enable-background:new 0 0 512.001 512.001;" xml:space="preserve">
<g>
	<g>
		<path d="M244.732,404.194c-14.865,0-28.068-8.95-33.759-22.34l-6.092,42.437L86.672,462.206
			c-13.413,4.302-20.797,18.662-16.496,32.074c4.304,13.419,18.671,20.796,32.074,16.496l133.398-42.785
			c9.292-2.98,16.068-11.001,17.455-20.66l6.65-46.318C254.878,403.185,249.719,404.194,244.732,404.194z"/>
	</g>
</g>
<g>
	<g>
		<path d="M437.755,311.863c-4.828-6.271-12.294-9.945-20.208-9.945h-66.914l10.378-142.869
			c1.217-16.756-11.38-31.325-28.135-32.543l-68.912-5.005c-16.756-1.217-31.326,11.379-32.543,28.135
			c-14.81,203.886-12.509,176.933-15.046,194.601c6.683-8.158,16.766-13.369,28.101-13.46l-10.814-84.751
			c-0.737-5.776-1.746-9.697,1.015-14.868l36.504-68.504l-19.691,73.036c-0.713,2.648-0.902,5.411-0.555,8.13l14.02,109.867
			l-5.45,0.469c-3.271-3.615-7.822-5.997-12.871-6.471v-0.002c-11.718-1.109-21.601,8.036-21.776,19.47
			c-0.171,11.245,8.938,20.134,19.717,20.219c0.053,0,0.104,0.008,0.158,0.008c2.837,0,5.835-0.628,8.569-1.933
			c-0.002-0.004-0.004-0.009-0.007-0.013c3.426-1.631,6.28-4.195,8.272-7.348l7.233-0.624c3.603,8.402,12.444,13.768,21.976,12.553
			c8.92-1.139,15.793-7.719,17.765-15.976l8.187-0.705c4.213,4.656,10.233,7.033,16.448,6.5c0.003,0,0.007,0,0.01,0
			c10.951-0.944,19.06-10.587,18.116-21.533c-1.156-13.423-15.337-22.101-27.931-16.456l0.001,0.009
			c-3.619,1.615-6.631,4.265-8.706,7.55l-7.798,0.672l-13.712-107.456l18.608-69.024l-1.862,62.7l11.291,88.489
			c21.133-6.119,42.22,7.333,46.297,28.138h16.931L350.82,479.97c-3.601,13.617,4.518,27.575,18.135,31.176
			c13.61,3.6,27.575-4.516,31.176-18.135l42.07-159.069C444.226,326.29,442.582,318.133,437.755,311.863z"/>
	</g>
</g>
<g>
	<g>
		<circle cx="322.619" cy="50.837" r="50.837"/>
	</g>
</g>
<g>
</g>
<g>
</g>
<g>
</g>
<g>
</g>
<g>
</g>
<g>
</g>
<g>
</g>
<g>
</g>
<g>
</g>
<g>
</g>
<g>
</g>
<g>
</g>
<g>
</g>
<g>
</g>
<g>
</g>
</svg>
