<?xml version="1.0" encoding="iso-8859-1"?>
<!-- Generator: Adobe Illustrator 19.0.0, SVG Export Plug-In . SVG Version: 6.00 Build 0)  -->
<svg version="1.1" id="Layer_1" xmlns="http://www.w3.org/2000/svg" xmlns:xlink="http://www.w3.org/1999/xlink" x="0px" y="0px"
	 viewBox="0 0 512.001 512.001" style="enable-background:new 0 0 512.001 512.001;" xml:space="preserve">
<g>
	<g>
		<path d="M495.509,80.047C482.246,24.141,426.174-10.43,370.268,2.833s-90.475,69.336-77.213,125.242
			c1.399,5.895,3.278,11.549,5.579,16.938l35.602-40.642c16.138-18.423,44.264-20.42,62.834-4.156
			c18.417,16.131,20.418,44.278,4.156,62.835l-35.874,40.955c16.691,4.849,34.828,5.581,52.947,1.282
			C474.203,192.026,508.772,135.953,495.509,80.047z"/>
	</g>
</g>
<g>
	<g>
		<circle cx="220.538" cy="75.083" r="49.394"/>
	</g>
</g>
<g>
	<g>
		<path d="M380.948,115.238c-0.202-0.144-0.411-0.267-0.616-0.404c-9.457-6.331-22.194-4.653-29.693,3.907
			c-6.333,7.23-45.565,52.017-51.78,59.114l-85.643-11.446l37.196-4.573c-4.752-7.115-12.539-12.121-21.72-13.016l-66.813-6.506
			c-16.245-1.582-30.697,10.305-32.279,26.55c-1.317,13.524-11.31,195.7-11.31,195.7l24.523,97.879c-11.251,0-92.9,0-104.377,0
			c-13.685,0-24.778,11.094-24.778,24.778c0,13.685,11.094,24.778,24.778,24.778c5.571,0,129.848,0,136.129,0
			c16.1,0,27.955-15.157,24.035-30.8l-27.945-111.535l23.135,2.254l26.048,103.961c3.102,12.385,0.972,25.419-5.737,36.122h28.138
			c16.1,0,27.955-15.157,24.035-30.8l-28.99-115.702l13.464-138.259l-40.411-15.373c0.354,0.047,94.259,12.598,94.613,12.644
			c7.519,0.988,15.074-1.864,20.059-7.553l59.807-68.277C393.586,138.673,391.967,123.145,380.948,115.238z"/>
	</g>
</g>
<g>
</g>
<g>
</g>
<g>
</g>
<g>
</g>
<g>
</g>
<g>
</g>
<g>
</g>
<g>
</g>
<g>
</g>
<g>
</g>
<g>
</g>
<g>
</g>
<g>
</g>
<g>
</g>
<g>
</g>
</svg>
