<?xml version="1.0" encoding="iso-8859-1"?>
<!-- Generator: Adobe Illustrator 19.0.0, SVG Export Plug-In . SVG Version: 6.00 Build 0)  -->
<svg version="1.1" id="Layer_1" xmlns="http://www.w3.org/2000/svg" xmlns:xlink="http://www.w3.org/1999/xlink" x="0px" y="0px"
	 viewBox="0 0 511.999 511.999" style="enable-background:new 0 0 511.999 511.999;" xml:space="preserve">
<g>
	<g>
		<path d="M411.925,52.777c-55.27,0-100.075,44.805-100.075,100.075c0,11.514,1.969,22.561,5.546,32.855l62.035-71.651
			c16.919-19.544,46.563-21.783,66.221-4.765c19.57,16.944,21.706,46.65,4.762,66.22l-64.138,74.081
			c8.187,2.165,16.78,3.332,25.648,3.332c55.27,0,100.075-44.805,100.075-100.075C512,97.582,467.195,52.777,411.925,52.777z"/>
	</g>
</g>
<g>
	<g>
		<path d="M433.481,123.35c-11.847-10.256-29.751-8.953-39.992,2.877l-90.251,104.24c-4.044,4.671-6.451,10.534-6.856,16.698
			l-4.22,64.191c-6.117-0.038-141.236-0.875-146.261-0.906c-15.686-0.097-28.48,12.54-28.577,28.224l-0.399,64.51
			c-0.097,15.686,12.54,28.48,28.224,28.577l28.141,0.189l-18.37-14.755l81.087,39.86c4.81,2.365,10.461,2.864,15.784,1.156
			l83.062-26.674c11.112-3.569,17.227-15.469,13.66-26.582c-3.569-11.111-15.466-17.227-26.582-13.66l-74.937,24.065l-73.428-36.095
			l70.591,21.233l73.183-23.499c9.036-2.902,18.757-2.132,27.196,2.083l7.803-118.695l84.019-97.043
			C446.607,151.504,445.318,133.6,433.481,123.35z"/>
	</g>
</g>
<g>
	<g>
		<circle cx="47.468" cy="382.677" r="47.468"/>
	</g>
</g>
<g>
</g>
<g>
</g>
<g>
</g>
<g>
</g>
<g>
</g>
<g>
</g>
<g>
</g>
<g>
</g>
<g>
</g>
<g>
</g>
<g>
</g>
<g>
</g>
<g>
</g>
<g>
</g>
<g>
</g>
</svg>
