<?xml version="1.0" encoding="iso-8859-1"?>
<!-- Generator: Adobe Illustrator 19.0.0, SVG Export Plug-In . SVG Version: 6.00 Build 0)  -->
<svg version="1.1" id="Layer_1" xmlns="http://www.w3.org/2000/svg" xmlns:xlink="http://www.w3.org/1999/xlink" x="0px" y="0px"
	 viewBox="0 0 512.001 512.001" style="enable-background:new 0 0 512.001 512.001;" xml:space="preserve">
<g>
	<g>
		<path d="M137.189,246.506c-9.425-2.704-16.882-9.454-20.556-18.257v151.866c4.201-5.628,9.884-10.142,16.56-12.854l7.714-3.135
			V247.574L137.189,246.506z"/>
	</g>
</g>
<g>
	<g>
		<path d="M369.772,247.959v115.63l9.039,3.672c5.997,2.436,11.192,6.331,15.234,11.176V231.045
			C387.172,243.834,375.847,246.216,369.772,247.959z"/>
	</g>
</g>
<g>
	<g>
		<circle cx="255.954" cy="191.214" r="40.257"/>
	</g>
</g>
<g>
	<g>
		<path d="M440.113,160.411c-32.049-23.503-23.468-17.209-39.342-28.851l0.587-3.013c1.893-9.717-4.449-19.129-14.167-21.024
			c-9.601-1.864-18.892,4.303-20.941,13.824c-43.728-9.081-64.1-14.346-98.773-15.556V24.274h102.296v72.324
			c6.285-3.095,13.245-4.013,20.072-2.688c1.445,0.282,2.845,0.666,4.201,1.129V12.137C394.045,5.435,388.611,0,381.908,0
			c-3.62,0-249.518,0-253.138,0c-6.702,0-12.137,5.434-12.137,12.137v83.395c1.77-0.695,3.621-1.248,5.552-1.625
			c6.188-1.203,12.64-0.583,18.721,2.067v-71.7h102.296v81.557c-34.372,1.31-54.608,6.563-97.434,15.492
			c-2.058-9.499-11.325-15.667-20.935-13.8c-9.717,1.894-16.06,11.306-14.167,21.024l0.584,3.001
			c-16.432,12.05-11.012,8.075-39.36,28.862c-5.406,3.965-6.575,11.56-2.61,16.965c3.964,5.406,11.558,6.576,16.964,2.61
			c21.024-15.418,14.647-10.741,30.138-22.1l11.98,61.487c1.289,6.613,6.177,11.944,12.652,13.803l63.285,18.156
			c0,10.455,0,91.088,0,104.013L139.11,381.83c-7.609,3.091-13.029,9.96-14.268,18.08l-13.007,85.264
			c-1.941,12.727,6.803,24.617,19.527,26.557c12.72,1.942,24.617-6.796,26.557-19.527l11.011-72.169l60.305-24.501h53.53
			l60.305,24.501c1.191,7.807,9.809,64.295,11.011,72.169c1.91,12.522,13.663,21.495,26.557,19.527
			c12.537-1.911,21.495-13.659,19.527-26.557l-13.007-85.264c-1.238-8.12-6.659-14.988-14.268-18.08l-65.706-26.696v-0.001
			c0-12.868,0-93.214,0-103.649l63.822-18.31c6.476-1.857,11.363-7.19,12.653-13.803l11.978-61.474
			c13.001,9.534,5.081,3.725,30.12,22.087c5.403,3.965,13,2.797,16.964-2.61C446.686,171.97,445.519,164.375,440.113,160.411z
			 M350.57,201.74l-43.613,12.512c-9.001,19.854-28.782,32.949-51.002,32.949c-22.255,0-42.034-13.128-51.02-32.986l-43.482-12.474
			l-11.026-56.592c42.006-8.757,66.555-15.328,105.657-15.303c37.737,0.026,60.058,5.888,105.507,15.327L350.57,201.74z"/>
	</g>
</g>
<g>
</g>
<g>
</g>
<g>
</g>
<g>
</g>
<g>
</g>
<g>
</g>
<g>
</g>
<g>
</g>
<g>
</g>
<g>
</g>
<g>
</g>
<g>
</g>
<g>
</g>
<g>
</g>
<g>
</g>
</svg>
