<?xml version="1.0" encoding="iso-8859-1"?>
<!-- Generator: Adobe Illustrator 19.0.0, SVG Export Plug-In . SVG Version: 6.00 Build 0)  -->
<svg version="1.1" id="Layer_1" xmlns="http://www.w3.org/2000/svg" xmlns:xlink="http://www.w3.org/1999/xlink" x="0px" y="0px"
	 viewBox="0 0 512 512" style="enable-background:new 0 0 512 512;" xml:space="preserve">
<g>
	<g>
		<path d="M314.89,246.785c-0.237,0.058,0.001,0.105,0.614,0.143L314.89,246.785z"/>
	</g>
</g>
<g>
	<g>
		<path d="M315.504,246.928l0.124,0.029c0.144,0,0.284-0.001,0.426-0.002C315.848,246.947,315.662,246.938,315.504,246.928z"/>
	</g>
</g>
<g>
	<g>
		<path d="M421.333,271.465l-105.705-24.508c-63.367,0.269-175.12,0.762-180.91,0.762h-0.04v-15.583h175.844
			c9.22,0,16.696-7.475,16.696-16.696c0-9.294-7.595-16.696-16.696-16.696h-9.599c5.179-11.71-3.557-24.797-16.234-24.671
			c-41.002,0.38-39.944,0.37-60.796,0.562l-37.51-55.331l45.951,39.808l3.805-32.098c1.467-13.006-8.787-24.381-21.879-24.261
			l-58.977,0.541c-9.696,0.089-17.847,6.495-20.606,15.271V11.06C134.679,4.952,129.727,0,123.619,0H82.647
			c-6.109,0-11.059,4.951-11.059,11.06c0,68.978,0,422.014,0,489.879c0,6.107,4.951,11.06,11.059,11.06h40.978
			c6.105,0,11.056-4.947,11.06-11.052l0.159-238.474c0.176,20.532,18.288,39.226,41.836,35.665l113.161-6.577
			c130.497,30.257,121.918,28.547,125.948,28.547c11.205,0,21.34-7.696,23.981-19.079
			C442.843,287.775,434.588,274.538,421.333,271.465z M197.768,198.745h-17.054c-7.472-19.544-2.128-5.566-22.052-57.685
			L197.768,198.745z"/>
	</g>
</g>
<g>
	<g>
		<circle cx="201.729" cy="44.833" r="41.249"/>
	</g>
</g>
<g>
</g>
<g>
</g>
<g>
</g>
<g>
</g>
<g>
</g>
<g>
</g>
<g>
</g>
<g>
</g>
<g>
</g>
<g>
</g>
<g>
</g>
<g>
</g>
<g>
</g>
<g>
</g>
<g>
</g>
</svg>
