<?xml version="1.0" encoding="iso-8859-1"?>
<!-- Generator: Adobe Illustrator 19.0.0, SVG Export Plug-In . SVG Version: 6.00 Build 0)  -->
<svg version="1.1" id="Layer_1" xmlns="http://www.w3.org/2000/svg" xmlns:xlink="http://www.w3.org/1999/xlink" x="0px" y="0px"
	 viewBox="0 0 512.003 512.003" style="enable-background:new 0 0 512.003 512.003;" xml:space="preserve">
<g>
	<g>
		<circle cx="251.372" cy="45.294" r="45.294"/>
	</g>
</g>
<g>
	<g>
		<path d="M359.049,240.557c2.355,11.078,13.246,18.151,24.325,15.794c11.078-2.355,18.151-13.246,15.794-24.325
			c-1.319-6.201-5.436-11.493-11.348-14.277l-2.865-13.477c2.539-4.343,3.488-9.592,2.299-14.868
			c-1.126-5.003-4.149-9.328-8.039-12.126l-3.262-15.344c4.162-4.826,5.902-11.341,4.558-17.659
			c-2.355-11.078-13.246-18.151-24.325-15.794c-11.078,2.355-18.15,13.246-15.794,24.325c1.297,6.102,5.364,11.459,11.347,14.277
			l1.68,7.898l-59.153,7.369l-50.902-59.165l58.995,40.831l0.032-27.019c-0.182-16.897-14.029-30.448-30.926-30.266l-54.367,0.14
			c-6.809,0.018-13.497,1.795-19.417,5.161l-74.928,42.603c-12.368,7.031-14.001,24.258-3.143,33.48l68.189,57.916l0.346,32.06
			l5.006,87.75l-23.756,117.517c-2.616,12.94,5.754,25.55,18.693,28.167c12.944,2.616,25.551-5.757,28.167-18.693l24.395-120.674
			c0.424-2.096,0.564-4.239,0.418-6.372l-4.874-71.078l32.032-0.346l40.588,8.941l-3.892,74.348
			c-0.51,9.755,4.911,18.437,13.101,22.578H285.99c-5.88,0-10.648,4.766-10.648,10.648v90.48c0,5.88,4.768,10.648,10.648,10.648
			h90.48c5.88,0,10.647-4.768,10.647-10.648v-90.48c0-5.88-4.766-10.648-10.647-10.648h-36.9
			c7.389-3.742,12.632-11.215,13.096-20.08l4.95-94.581c0.612-11.674-7.312-22.078-18.728-24.594l-35.24-7.764l-0.116-10.801
			l-12.672,1.579c-18.798,2.342-33.676-9.117-38.005-17.435l-38.733-74.428l56.208,65.334l0.001,0.001
			c4.368,5.075,11.149,7.843,18.093,6.979l73.565-9.165l1.622,7.626C359.259,227.937,357.775,234.569,359.049,240.557z
			 M168.535,175.817l18.397-10.459l0.284,26.325L168.535,175.817z"/>
	</g>
</g>
<g>
</g>
<g>
</g>
<g>
</g>
<g>
</g>
<g>
</g>
<g>
</g>
<g>
</g>
<g>
</g>
<g>
</g>
<g>
</g>
<g>
</g>
<g>
</g>
<g>
</g>
<g>
</g>
<g>
</g>
</svg>
