<?xml version="1.0" encoding="iso-8859-1"?>
<!-- Generator: Adobe Illustrator 19.0.0, SVG Export Plug-In . SVG Version: 6.00 Build 0)  -->
<svg version="1.1" id="Layer_1" xmlns="http://www.w3.org/2000/svg" xmlns:xlink="http://www.w3.org/1999/xlink" x="0px" y="0px"
	 viewBox="0 0 512.002 512.002" style="enable-background:new 0 0 512.002 512.002;" xml:space="preserve">
<g>
	<g>
		<path d="M214.538,345.226l-12.529,13.292c-8.315,8.821-7.905,22.712,0.916,31.027c8.829,8.321,22.72,7.897,31.027-0.917
			l17.759-18.841L214.538,345.226z"/>
	</g>
</g>
<g>
	<g>
		<path d="M203.036,38.321c0-1.43,0.073-2.843,0.186-4.245h-9.827l-0.837,28.741h16.52
			C205.227,55.488,203.036,47.157,203.036,38.321z"/>
	</g>
</g>
<g>
	<g>
		<path d="M319.275,62.817l-0.837-28.741h-9.881c0.112,1.402,0.186,2.814,0.186,4.245c0,8.837-2.191,17.168-6.042,24.496H319.275z"
			/>
	</g>
</g>
<g>
	<g>
		<path d="M366.929,36.939c-0.385-9.079-7.895-16.167-16.874-16.165c-0.233,0-0.469,0.004-0.706,0.014
			c-9.314,0.395-16.546,8.264-16.151,17.578l1.747,41.289l-54.404,3.956h-49.25l-54.404-3.956l1.747-41.289
			c0.395-9.314-6.837-17.185-16.151-17.578c-0.25-0.011-0.497-0.017-0.745-0.017c-8.974,0.001-16.45,7.104-16.834,16.168
			l-2.451,57.934c-0.391,9.229,6.709,17.057,15.931,17.567l48.865,2.706c0,10.884,0,96.147,0,109.862
			c-15.235,20.499-17.954,24.157-32.757,44.076c-7.516,10.112-4.983,24.468,5.516,31.405l94.826,62.655
			c10.117,6.686,23.733,3.898,30.413-6.213c6.682-10.113,3.901-23.73-6.213-30.413l-75.473-49.867
			c13.583-18.277,6.496-8.741,26.79-36.047h14.465l13.908,36.527l-8.161,8.657l37.174,24.562l12.365-13.119
			c5.771-6.121,7.535-15.003,4.54-22.866l-20.513-53.872c0-12.982,0-93.837,0-105.324l49.317-2.731
			c9.223-0.511,16.322-8.34,15.931-17.567L366.929,36.939z"/>
	</g>
</g>
<g>
	<g>
		<path d="M127.493,470.615h-27.84V62.817h29.198c1.223-28.892,1.108-27.004,1.303-28.741H85.283c-7.937,0-14.37,6.433-14.37,14.37
			v422.168h-27.84c-3.354,0-6.074,2.72-6.074,6.074v29.239c0,3.354,2.72,6.074,6.074,6.074h84.42c3.354,0,6.074-2.72,6.074-6.074
			v-29.239C133.567,473.333,130.847,470.615,127.493,470.615z"/>
	</g>
</g>
<g>
	<g>
		<path d="M468.931,470.615h-28.01V48.447c0-7.937-6.433-14.37-14.37-14.37H381.68c0.195,1.74,0.08-0.148,1.303,28.741h29.198
			v407.798H384.51c-3.354,0-6.074,2.72-6.074,6.074v29.239c0,3.354,2.72,6.074,6.074,6.074h84.42c3.354,0,6.074-2.72,6.074-6.074
			v-29.239C475.004,473.333,472.285,470.615,468.931,470.615z"/>
	</g>
</g>
<g>
	<g>
		<circle cx="255.889" cy="38.321" r="38.321"/>
	</g>
</g>
<g>
</g>
<g>
</g>
<g>
</g>
<g>
</g>
<g>
</g>
<g>
</g>
<g>
</g>
<g>
</g>
<g>
</g>
<g>
</g>
<g>
</g>
<g>
</g>
<g>
</g>
<g>
</g>
<g>
</g>
</svg>
