<?xml version="1.0" encoding="iso-8859-1"?>
<!-- Generator: Adobe Illustrator 19.0.0, SVG Export Plug-In . SVG Version: 6.00 Build 0)  -->
<svg version="1.1" id="Layer_1" xmlns="http://www.w3.org/2000/svg" xmlns:xlink="http://www.w3.org/1999/xlink" x="0px" y="0px"
	 viewBox="0 0 512 512" style="enable-background:new 0 0 512 512;" xml:space="preserve">
<g>
	<g>
		<path d="M430.935,197.914l-37.246-17.713c-10.323-4.91-22.654-0.299-27.245,10.14l-34.782,79.095l-19.75-52.708
			c-2.917-7.785-10.212-13.065-18.518-13.401l-91.478-3.713l12.762-30.069c4.461-10.509-0.443-22.644-10.952-27.105
			c-10.508-4.46-22.644,0.443-27.104,10.952l-29.08,68.514c14.612,1.723,28.749,7.804,40.444,18.231
			c2.542,0.515-3.872,0.13,90.025,3.941l27.109,72.343c1.608-10.161,8.045-19.251,17.797-23.912l45.545-21.761l20.861-49.9
			l-8.711,61.46c-7.384,3.527-43.554,20.81-50.94,24.339c-7.643,3.652-11.121,12.451-8.334,20.221
			c3.142,8.753,13.076,13.281,21.859,9.465c0.182-0.079,0.367-0.148,0.547-0.233c26.8-12.805,54.064-25.831,58.836-28.111
			c4.919-2.349,8.354-7.011,9.124-12.436l9.619-67.868l2.841,31.537l16.357-34.291C445.336,214.83,441.045,202.723,430.935,197.914z
			"/>
	</g>
</g>
<g>
	<g>
		<circle cx="436.929" cy="142.657" r="38.305"/>
	</g>
</g>
<g>
	<g>
		<path d="M500.076,172.359c-10.341-4.834-22.644-0.368-27.479,9.974l-46.416,99.32l1.125,12.491
			c0.63,6.991-3.967,21.285-17.974,27.979l-2.658,1.27l-17.687,37.846l-13.509-4.728c2.842-2.867,5.235-6.212,7.022-9.959
			l7.174-15.038c-6.126,2.927-34.148,16.316-39.175,18.718c-17.101,8.175-37.337-0.313-43.8-17.789l-94.042-32.907
			c-0.818,14.491-5.832,27.869-13.836,38.959l112.994,39.54H15.939c-8.177,0-14.806,6.629-14.806,14.806s6.629,14.806,14.806,14.806
			h379.389c10.448,0,19.994-6.006,24.509-15.426c11.608-24.218,36.079-76.548,90.214-192.386
			C514.884,189.496,510.419,177.193,500.076,172.359z"/>
	</g>
</g>
<g>
	<g>
		<path d="M27.504,234.749c-10.774-3.769-22.567,1.907-26.338,12.684c-3.77,10.775,1.909,22.568,12.685,26.338l51.123,17.889
			c0.712-14.506,5.638-27.914,13.555-39.056L27.504,234.749z"/>
	</g>
</g>
<g>
	<g>
		<path d="M138.834,242.053c-29.423,0-53.276,23.852-53.276,53.276c0,29.424,23.852,53.276,53.276,53.276
			s53.276-23.852,53.276-53.276C192.11,265.905,168.257,242.053,138.834,242.053z M138.834,324.868
			c-16.288,0-29.539-13.25-29.539-29.538s13.251-29.538,29.539-29.538s29.538,13.25,29.538,29.538
			C168.372,311.617,155.12,324.868,138.834,324.868z"/>
	</g>
</g>
<g>
	<g>
		<path d="M138.834,279.575c-8.686,0-15.754,7.068-15.754,15.754c0,8.686,7.067,15.754,15.754,15.754
			c8.686,0,15.753-7.068,15.753-15.754C154.587,286.643,147.52,279.575,138.834,279.575z"/>
	</g>
</g>
<g>
</g>
<g>
</g>
<g>
</g>
<g>
</g>
<g>
</g>
<g>
</g>
<g>
</g>
<g>
</g>
<g>
</g>
<g>
</g>
<g>
</g>
<g>
</g>
<g>
</g>
<g>
</g>
<g>
</g>
</svg>
