<?xml version="1.0" encoding="iso-8859-1"?>
<!-- Generator: Adobe Illustrator 19.0.0, SVG Export Plug-In . SVG Version: 6.00 Build 0)  -->
<svg version="1.1" id="Layer_1" xmlns="http://www.w3.org/2000/svg" xmlns:xlink="http://www.w3.org/1999/xlink" x="0px" y="0px"
	 viewBox="0 0 512 512" style="enable-background:new 0 0 512 512;" xml:space="preserve">
<g>
	<g>
		<path d="M45.72,377.061L7.087,459.034c-5.296,11.706-0.098,25.488,11.608,30.785c11.699,5.295,25.489,0.102,30.785-11.608
			L60.535,457.2L45.72,377.061z"/>
	</g>
</g>
<g>
	<g>
		<path d="M396.463,301.805c-15.094-48.23-13.903-44.561-14.523-46.085V132.204c-6.37,1.735-13.064,2.678-19.975,2.678
			c-6.912,0-13.604-0.943-19.974-2.677v114.506l-172.975,59.812l-82.784,8.836c-7.575,0.808-14.224,5.27-17.876,11.867
			c4.846-1.786,9.993-2.618,15.695-2.257l99.497,10.048l-97.316,10.387c-13.455,1.435-22.872,14.037-20.407,27.362l22.206,120.117
			c2.336,12.635,14.468,20.984,27.106,18.648c12.634-2.337,20.983-14.473,18.647-27.106l-17.641-95.42
			c11.167-1.192,97.103-10.364,110.964-11.844c9.244-0.987,11.628-2.284,154.381-46.776
			C393.512,326.634,400.227,313.83,396.463,301.805z"/>
	</g>
</g>
<g>
	<g>
		<circle cx="450.515" cy="262.749" r="43.11"/>
	</g>
</g>
<g>
	<g>
		<path d="M361.966,41.019c-9.78,0-17.736,7.956-17.736,17.735c0,9.78,7.956,17.736,17.736,17.736s17.736-7.956,17.736-17.736
			C379.702,48.975,371.746,41.019,361.966,41.019z"/>
	</g>
</g>
<g>
	<g>
		<path d="M361.966,0c-32.449,0-58.754,26.305-58.754,58.754c0,32.449,26.305,58.754,58.754,58.754
			c32.449,0,58.754-26.305,58.754-58.754C420.721,26.305,394.415,0,361.966,0z M361.966,90.968
			c-17.763,0-32.214-14.451-32.214-32.214c0-17.763,14.452-32.213,32.214-32.213s32.213,14.45,32.213,32.213
			C394.179,76.517,379.728,90.968,361.966,90.968z"/>
	</g>
</g>
<g>
	<g>
		<path d="M499.658,329.077c-4.609-3.413-10.562-4.436-16.047-2.768L193.84,414.656c-7.616,2.321-12.818,9.349-12.818,17.31v61.938
			c0,9.994,8.101,18.096,18.096,18.096s18.096-8.101,18.096-18.096v-48.537l253.58-77.312v125.848
			c0,9.994,8.101,18.096,18.096,18.096s18.096-8.101,18.096-18.096V343.619C506.984,337.884,504.267,332.49,499.658,329.077z"/>
	</g>
</g>
<g>
</g>
<g>
</g>
<g>
</g>
<g>
</g>
<g>
</g>
<g>
</g>
<g>
</g>
<g>
</g>
<g>
</g>
<g>
</g>
<g>
</g>
<g>
</g>
<g>
</g>
<g>
</g>
<g>
</g>
</svg>
